<svg width="7443" height="1529" viewBox="0 0 7443 1529" fill="none" xmlns="http://www.w3.org/2000/svg">
<path d="M389.648 574.062V1285H230.957V574.062H389.648ZM605.957 574.062V697.598H19.043V574.062H605.957ZM561.035 1026.21V1015.96C561.035 977.22 566.569 941.576 577.637 909.023C588.704 876.146 604.98 847.663 626.465 823.574C647.949 799.486 674.316 780.768 705.566 767.422C736.816 753.75 772.624 746.914 812.988 746.914C854.004 746.914 890.137 753.75 921.387 767.422C952.962 780.768 979.492 799.486 1000.98 823.574C1022.46 847.663 1038.74 876.146 1049.8 909.023C1060.87 941.576 1066.41 977.22 1066.41 1015.96V1026.21C1066.41 1064.62 1060.87 1100.27 1049.8 1133.14C1038.74 1165.7 1022.46 1194.18 1000.98 1218.59C979.492 1242.68 953.125 1261.4 921.875 1274.75C890.625 1288.09 854.655 1294.77 813.965 1294.77C773.6 1294.77 737.63 1288.09 706.055 1274.75C674.479 1261.4 647.949 1242.68 626.465 1218.59C604.98 1194.18 588.704 1165.7 577.637 1133.14C566.569 1100.27 561.035 1064.62 561.035 1026.21ZM713.867 1015.96V1026.21C713.867 1047.04 715.495 1066.58 718.75 1084.8C722.331 1103.03 728.027 1118.98 735.84 1132.66C743.652 1146.33 753.906 1157.07 766.602 1164.88C779.622 1172.37 795.41 1176.11 813.965 1176.11C832.52 1176.11 848.145 1172.37 860.84 1164.88C873.535 1157.07 883.789 1146.33 891.602 1132.66C899.414 1118.98 904.948 1103.03 908.203 1084.8C911.784 1066.58 913.574 1047.04 913.574 1026.21V1015.96C913.574 995.449 911.784 976.243 908.203 958.34C904.948 940.111 899.414 923.997 891.602 910C883.789 896.003 873.372 885.098 860.352 877.285C847.656 869.473 831.868 865.566 812.988 865.566C794.759 865.566 779.297 869.473 766.602 877.285C753.906 885.098 743.652 896.003 735.84 910C728.027 923.997 722.331 940.111 718.75 958.34C715.495 976.243 713.867 995.449 713.867 1015.96ZM1395.51 1294.77C1353.52 1294.77 1315.92 1288.09 1282.71 1274.75C1249.51 1261.4 1221.35 1243.01 1198.24 1219.57C1175.46 1195.81 1158.04 1168.46 1146 1137.54C1133.95 1106.61 1127.93 1073.57 1127.93 1038.42V1019.86C1127.93 980.475 1133.46 944.18 1144.53 910.977C1155.6 877.773 1171.71 848.965 1192.87 824.551C1214.36 799.811 1240.72 780.768 1271.97 767.422C1303.22 753.75 1338.87 746.914 1378.91 746.914C1416.34 746.914 1449.71 753.099 1479 765.469C1508.3 777.513 1533.04 794.928 1553.22 817.715C1573.4 840.176 1588.7 867.357 1599.12 899.258C1609.86 930.833 1615.23 966.315 1615.23 1005.7V1068.2H1189.45V970.059H1465.82V958.34C1465.82 939.785 1462.4 923.509 1455.57 909.512C1449.06 895.514 1439.29 884.772 1426.27 877.285C1413.57 869.473 1397.46 865.566 1377.93 865.566C1359.38 865.566 1343.91 869.473 1331.54 877.285C1319.17 885.098 1309.24 896.165 1301.76 910.488C1294.6 924.486 1289.39 940.924 1286.13 959.805C1282.88 978.359 1281.25 998.379 1281.25 1019.86V1038.42C1281.25 1058.93 1284.02 1077.64 1289.55 1094.57C1295.08 1111.5 1303.22 1125.98 1313.96 1138.03C1324.71 1150.07 1337.73 1159.51 1353.03 1166.35C1368.33 1173.18 1385.74 1176.6 1405.27 1176.6C1429.36 1176.6 1452.31 1172.04 1474.12 1162.93C1495.93 1153.49 1514.81 1138.84 1530.76 1118.98L1602.05 1200.53C1591.31 1216.15 1576.17 1231.29 1556.64 1245.94C1537.43 1260.26 1514.32 1271.98 1487.3 1281.09C1460.29 1290.21 1429.69 1294.77 1395.51 1294.77ZM1958.01 756.68V863.613H1644.53V756.68H1958.01ZM1716.31 625.82H1869.14V1119.47C1869.14 1134.12 1870.93 1145.35 1874.51 1153.16C1878.09 1160.98 1883.95 1166.51 1892.09 1169.77C1900.23 1172.7 1910.64 1174.16 1923.34 1174.16C1932.45 1174.16 1940.27 1173.83 1946.78 1173.18C1953.29 1172.53 1959.31 1171.72 1964.84 1170.74V1281.09C1951.82 1285.33 1937.99 1288.58 1923.34 1290.86C1908.69 1293.46 1892.74 1294.77 1875.49 1294.77C1842.61 1294.77 1814.13 1289.39 1790.04 1278.65C1766.28 1267.91 1748.05 1250.98 1735.35 1227.87C1722.66 1204.43 1716.31 1174 1716.31 1136.56V625.82ZM2312.5 1138.03C2312.5 1128.26 2309.41 1119.64 2303.22 1112.15C2297.36 1104.66 2286.62 1097.83 2271 1091.64C2255.7 1085.46 2234.05 1079.27 2206.05 1073.09C2179.69 1067.55 2155.11 1060.39 2132.32 1051.6C2109.54 1042.49 2089.68 1031.58 2072.75 1018.89C2055.83 1005.87 2042.64 990.566 2033.2 972.988C2023.76 955.085 2019.04 934.74 2019.04 911.953C2019.04 889.818 2023.76 868.822 2033.2 848.965C2042.97 829.108 2056.97 811.53 2075.2 796.23C2093.75 780.931 2116.21 768.887 2142.58 760.098C2169.27 751.309 2199.54 746.914 2233.4 746.914C2279.95 746.914 2320.15 754.238 2354 768.887C2387.86 783.21 2413.9 803.392 2432.13 829.434C2450.36 855.15 2459.47 884.609 2459.47 917.812H2307.13C2307.13 904.141 2304.52 892.259 2299.32 882.168C2294.11 872.077 2286.13 864.264 2275.39 858.73C2264.65 852.871 2250.49 849.941 2232.91 849.941C2219.24 849.941 2207.19 852.383 2196.78 857.266C2186.69 861.823 2178.71 868.171 2172.85 876.309C2167.32 884.447 2164.55 893.887 2164.55 904.629C2164.55 912.116 2166.18 918.952 2169.43 925.137C2173.01 930.996 2178.39 936.53 2185.55 941.738C2193.03 946.621 2202.64 951.016 2214.36 954.922C2226.4 958.828 2241.05 962.572 2258.3 966.152C2295.08 972.988 2328.61 982.591 2358.89 994.961C2389.49 1007.33 2413.9 1024.42 2432.13 1046.23C2450.68 1068.04 2459.96 1096.85 2459.96 1132.66C2459.96 1156.09 2454.59 1177.58 2443.85 1197.11C2433.43 1216.64 2418.29 1233.73 2398.44 1248.38C2378.58 1263.03 2354.82 1274.42 2327.15 1282.56C2299.48 1290.7 2268.23 1294.77 2233.4 1294.77C2183.59 1294.77 2141.44 1285.81 2106.93 1267.91C2072.43 1250.01 2046.39 1227.55 2028.81 1200.53C2011.56 1173.18 2002.93 1145.19 2002.93 1116.54H2146C2146.65 1134.12 2151.04 1148.44 2159.18 1159.51C2167.64 1170.58 2178.55 1178.72 2191.89 1183.93C2205.24 1188.81 2220.21 1191.25 2236.82 1191.25C2253.42 1191.25 2267.25 1188.97 2278.32 1184.41C2289.39 1179.86 2297.85 1173.67 2303.71 1165.86C2309.57 1157.72 2312.5 1148.44 2312.5 1138.03ZM2793.95 1294.77C2751.95 1294.77 2714.36 1288.09 2681.15 1274.75C2647.95 1261.4 2619.79 1243.01 2596.68 1219.57C2573.89 1195.81 2556.48 1168.46 2544.43 1137.54C2532.39 1106.61 2526.37 1073.57 2526.37 1038.42V1019.86C2526.37 980.475 2531.9 944.18 2542.97 910.977C2554.04 877.773 2570.15 848.965 2591.31 824.551C2612.79 799.811 2639.16 780.768 2670.41 767.422C2701.66 753.75 2737.3 746.914 2777.34 746.914C2814.78 746.914 2848.14 753.099 2877.44 765.469C2906.74 777.513 2931.48 794.928 2951.66 817.715C2971.84 840.176 2987.14 867.357 2997.56 899.258C3008.3 930.833 3013.67 966.315 3013.67 1005.7V1068.2H2587.89V970.059H2864.26V958.34C2864.26 939.785 2860.84 923.509 2854 909.512C2847.49 895.514 2837.73 884.772 2824.71 877.285C2812.01 869.473 2795.9 865.566 2776.37 865.566C2757.81 865.566 2742.35 869.473 2729.98 877.285C2717.61 885.098 2707.68 896.165 2700.2 910.488C2693.03 924.486 2687.83 940.924 2684.57 959.805C2681.32 978.359 2679.69 998.379 2679.69 1019.86V1038.42C2679.69 1058.93 2682.45 1077.64 2687.99 1094.57C2693.52 1111.5 2701.66 1125.98 2712.4 1138.03C2723.14 1150.07 2736.17 1159.51 2751.46 1166.35C2766.76 1173.18 2784.18 1176.6 2803.71 1176.6C2827.8 1176.6 2850.75 1172.04 2872.56 1162.93C2894.37 1153.49 2913.25 1138.84 2929.2 1118.98L3000.49 1200.53C2989.75 1216.15 2974.61 1231.29 2955.08 1245.94C2935.87 1260.26 2912.76 1271.98 2885.74 1281.09C2858.72 1290.21 2828.12 1294.77 2793.95 1294.77ZM3237.3 869.473V1285H3084.47V756.68H3228.03L3237.3 869.473ZM3217.29 1002.29L3179.2 1003.26C3179.2 963.548 3184.08 927.904 3193.85 896.328C3203.61 864.753 3217.45 837.897 3235.35 815.762C3253.58 793.301 3275.23 776.211 3300.29 764.492C3325.68 752.773 3353.68 746.914 3384.28 746.914C3409.02 746.914 3431.64 750.495 3452.15 757.656C3472.66 764.818 3490.23 776.374 3504.88 792.324C3519.86 807.949 3531.25 828.783 3539.06 854.824C3546.88 880.54 3550.78 912.279 3550.78 950.039V1285H3397.46V949.551C3397.46 927.415 3394.37 910.326 3388.18 898.281C3382 886.237 3372.88 877.773 3360.84 872.891C3349.12 868.008 3334.8 865.566 3317.87 865.566C3299.97 865.566 3284.67 869.147 3271.97 876.309C3259.28 883.145 3248.86 892.747 3240.72 905.117C3232.58 917.487 3226.56 931.973 3222.66 948.574C3219.08 965.176 3217.29 983.079 3217.29 1002.29ZM3942.38 977.871H3759.77L3758.79 871.426H3909.67C3936.36 871.426 3958.01 868.171 3974.61 861.66C3991.54 855.15 4003.91 845.71 4011.72 833.34C4019.53 820.645 4023.44 805.02 4023.44 786.465C4023.44 765.306 4019.53 748.216 4011.72 735.195C4003.91 722.174 3991.54 712.734 3974.61 706.875C3958.01 700.69 3936.52 697.598 3910.16 697.598H3817.38V1285H3658.2V574.062H3910.16C3952.8 574.062 3990.89 577.969 4024.41 585.781C4057.94 593.594 4086.43 605.638 4109.86 621.914C4133.63 638.19 4151.69 658.535 4164.06 682.949C4176.43 707.363 4182.62 736.172 4182.62 769.375C4182.62 798.346 4176.11 825.365 4163.09 850.43C4150.39 875.495 4129.88 895.84 4101.56 911.465C4073.24 927.09 4035.32 935.553 3987.79 936.855L3942.38 977.871ZM3936.04 1285H3719.24L3776.86 1161.95H3936.04C3960.45 1161.95 3980.31 1158.05 3995.61 1150.23C4010.9 1142.42 4022.14 1131.84 4029.3 1118.5C4036.46 1105.15 4040.04 1090.18 4040.04 1073.57C4040.04 1054.04 4036.62 1037.12 4029.79 1022.79C4023.27 1008.47 4012.86 997.402 3998.54 989.59C3984.54 981.777 3965.82 977.871 3942.38 977.871H3799.8L3800.78 871.426H3975.1L4012.21 913.418C4057.45 912.441 4093.59 919.766 4120.61 935.391C4147.95 950.69 4167.64 970.872 4179.69 995.938C4191.73 1021 4197.75 1047.53 4197.75 1075.53C4197.75 1121.75 4187.83 1160.49 4167.97 1191.74C4148.11 1222.66 4118.65 1245.94 4079.59 1261.56C4040.85 1277.19 3993 1285 3936.04 1285ZM4271 1026.21V1015.96C4271 977.22 4276.53 941.576 4287.6 909.023C4298.67 876.146 4314.94 847.663 4336.43 823.574C4357.91 799.486 4384.28 780.768 4415.53 767.422C4446.78 753.75 4482.58 746.914 4522.95 746.914C4563.96 746.914 4600.1 753.75 4631.35 767.422C4662.92 780.768 4689.45 799.486 4710.94 823.574C4732.42 847.663 4748.7 876.146 4759.77 909.023C4770.83 941.576 4776.37 977.22 4776.37 1015.96V1026.21C4776.37 1064.62 4770.83 1100.27 4759.77 1133.14C4748.7 1165.7 4732.42 1194.18 4710.94 1218.59C4689.45 1242.68 4663.09 1261.4 4631.84 1274.75C4600.59 1288.09 4564.62 1294.77 4523.93 1294.77C4483.56 1294.77 4447.59 1288.09 4416.02 1274.75C4384.44 1261.4 4357.91 1242.68 4336.43 1218.59C4314.94 1194.18 4298.67 1165.7 4287.6 1133.14C4276.53 1100.27 4271 1064.62 4271 1026.21ZM4423.83 1015.96V1026.21C4423.83 1047.04 4425.46 1066.58 4428.71 1084.8C4432.29 1103.03 4437.99 1118.98 4445.8 1132.66C4453.61 1146.33 4463.87 1157.07 4476.56 1164.88C4489.58 1172.37 4505.37 1176.11 4523.93 1176.11C4542.48 1176.11 4558.11 1172.37 4570.8 1164.88C4583.5 1157.07 4593.75 1146.33 4601.56 1132.66C4609.38 1118.98 4614.91 1103.03 4618.16 1084.8C4621.74 1066.58 4623.54 1047.04 4623.54 1026.21V1015.96C4623.54 995.449 4621.74 976.243 4618.16 958.34C4614.91 940.111 4609.38 923.997 4601.56 910C4593.75 896.003 4583.33 885.098 4570.31 877.285C4557.62 869.473 4541.83 865.566 4522.95 865.566C4504.72 865.566 4489.26 869.473 4476.56 877.285C4463.87 885.098 4453.61 896.003 4445.8 910C4437.99 923.997 4432.29 940.111 4428.71 958.34C4425.46 976.243 4423.83 995.449 4423.83 1015.96ZM5009.28 879.727V1285H4856.93V756.68H5000L5009.28 879.727ZM5166.99 752.773L5164.55 894.863C5158.04 893.887 5149.58 893.073 5139.16 892.422C5128.74 891.445 5119.79 890.957 5112.3 890.957C5092.77 890.957 5075.85 893.398 5061.52 898.281C5047.53 902.839 5035.81 909.674 5026.37 918.789C5017.25 927.904 5010.42 939.297 5005.86 952.969C5001.3 966.315 4999.02 981.777 4999.02 999.355L4970.21 985.195C4970.21 950.365 4973.63 918.464 4980.47 889.492C4987.3 860.521 4997.23 835.456 5010.25 814.297C5023.27 792.812 5039.23 776.211 5058.11 764.492C5076.99 752.773 5098.47 746.914 5122.56 746.914C5130.37 746.914 5138.35 747.402 5146.48 748.379C5154.62 749.355 5161.46 750.82 5166.99 752.773ZM5527.34 1166.84V535H5680.66V1285H5542.97L5527.34 1166.84ZM5198.24 1027.19V1016.93C5198.24 976.895 5202.64 940.436 5211.43 907.559C5220.54 874.355 5233.72 845.872 5250.98 822.109C5268.55 798.021 5290.2 779.466 5315.92 766.445C5341.63 753.424 5371.09 746.914 5404.3 746.914C5434.9 746.914 5461.59 753.75 5484.38 767.422C5507.16 780.768 5526.53 799.648 5542.48 824.062C5558.76 848.151 5571.94 876.634 5582.03 909.512C5592.12 942.064 5599.77 977.383 5604.98 1015.47V1033.05C5600.1 1069.51 5592.45 1103.52 5582.03 1135.1C5571.94 1166.67 5558.76 1194.51 5542.48 1218.59C5526.53 1242.36 5507 1261.07 5483.89 1274.75C5461.1 1288.09 5434.24 1294.77 5403.32 1294.77C5370.12 1294.77 5340.66 1288.09 5314.94 1274.75C5289.55 1261.4 5268.23 1242.68 5250.98 1218.59C5233.72 1194.51 5220.54 1166.18 5211.43 1133.63C5202.64 1101.08 5198.24 1065.6 5198.24 1027.19ZM5350.59 1016.93V1027.19C5350.59 1048.02 5352.05 1067.39 5354.98 1085.29C5358.24 1103.2 5363.44 1118.98 5370.61 1132.66C5377.77 1146.33 5387.21 1157.07 5398.93 1164.88C5410.64 1172.37 5424.97 1176.11 5441.89 1176.11C5464.68 1176.11 5483.4 1170.9 5498.05 1160.49C5512.7 1149.75 5523.76 1134.93 5531.25 1116.05C5538.74 1097.17 5542.64 1075.2 5542.97 1050.14V998.867C5542.97 978.034 5540.85 959.316 5536.62 942.715C5532.39 926.113 5526.04 912.116 5517.58 900.723C5509.44 889.329 5499.19 880.703 5486.82 874.844C5474.45 868.659 5459.8 865.566 5442.87 865.566C5426.27 865.566 5412.11 869.473 5400.39 877.285C5388.67 884.772 5379.07 895.352 5371.58 909.023C5364.42 922.695 5359.05 938.809 5355.47 957.363C5352.21 975.592 5350.59 995.449 5350.59 1016.93Z" fill="white"/>
<path fill-rule="evenodd" clip-rule="evenodd" d="M7353.06 1304.19C7353.06 1328.93 7332.91 1349.16 7308.09 1349.16H6048.91C6024.09 1349.16 6003.94 1328.93 6003.94 1304.19V584.664C6003.94 559.931 6024.09 539.694 6048.91 539.694H7308.09C7332.91 539.694 7353.06 559.931 7353.06 584.664V1304.19H7353.06ZM7308.09 449.753H6727.34C6739.21 380.498 6779.86 359.362 6833.56 332.559C6904.7 297.033 6993.29 252.692 6993.29 89.988H6903.35C6903.35 197.108 6857.21 220.133 6793.27 252.152C6729.32 284.081 6651.88 324.015 6636.77 449.753H6048.91C5974.53 449.753 5914 510.284 5914 584.664V1304.19C5914 1378.58 5974.53 1439.11 6048.91 1439.11H7308.09C7382.47 1439.11 7443 1378.58 7443 1304.19V584.664C7443 510.283 7382.47 449.753 7308.09 449.753Z" fill="#76A9FF"/>
<g clip-path="url(#clip0_213_619)">
<path d="M6679.04 789.636C6639.33 749.382 6578.11 709.127 6426.4 706.173C6416.44 705.979 6408.31 712.426 6408.31 720.365C6408.31 779.259 6408.31 1002.22 6408.31 1068.16C6408.31 1076.1 6416.44 1082.34 6426.4 1082.6C6578.11 1086.55 6639.33 1140.12 6679.04 1180.37M6679.04 789.636C6718.75 749.382 6779.96 709.127 6931.67 706.173C6941.64 705.979 6949.76 712.281 6949.76 720.22C6949.76 786.053 6949.76 1002.31 6949.76 1068.14C6949.76 1076.08 6941.64 1082.34 6931.68 1082.6C6779.96 1086.55 6718.75 1140.12 6679.04 1180.37M6679.04 789.636V1180.37" stroke="#76A9FF" stroke-width="33.3333" stroke-linejoin="round"/>
<path d="M6940.21 763.5H7021.96C7031.92 763.5 7040.01 769.936 7040.01 777.875V1152.75C7040.01 1164.38 7022.8 1172.11 7009.45 1167.38C6980.75 1157.23 6932.85 1144.82 6870.14 1144.82C6763.97 1144.82 6679.04 1194.75 6679.04 1194.75C6679.04 1194.75 6594.1 1144.82 6487.94 1144.82C6425.22 1144.82 6377.32 1157.23 6348.62 1167.38C6335.28 1172.11 6318.07 1164.38 6318.07 1152.75V777.875C6318.07 769.936 6326.15 763.5 6336.12 763.5H6417.87" stroke="#76A9FF" stroke-width="33.3333" stroke-linejoin="round"/>
</g>
<defs>
<clipPath id="clip0_213_619">
<rect width="866.326" height="690" fill="white" transform="translate(6245.88 591)"/>
</clipPath>
</defs>
</svg>
