<svg width="4456" height="4044" viewBox="0 0 4456 4044" fill="none" xmlns="http://www.w3.org/2000/svg">
<g clip-path="url(#clip0_215_604)">
<path fill-rule="evenodd" clip-rule="evenodd" d="M4286.43 173.804C4256.07 1036.67 3873.67 1726.29 3170.28 2186.64C2927.4 2345.6 2645.11 2484.83 2362.66 2584.97C2312.84 2602.63 2272.34 2621.99 2272.69 2627.98C2273.02 2633.98 2285.14 2671.93 2299.62 2712.32L2325.93 2785.76L3214.41 2788.25L4102.88 2790.76L4116.82 2763.78C4140.46 2717.98 4199.79 2516.7 4220.03 2413.67C4243.24 2295.42 4260.13 2130.46 4260.13 2022C4260.13 1845.07 4221.7 1593.05 4169.81 1429.6L4146.49 1356.16L4197.68 1248.28C4329.57 970.345 4424.51 581.092 4441.24 249.69C4444.24 190.45 4448.97 110.04 4451.75 70.9903L4456.81 0H4374.68H4292.55L4286.43 173.804ZM1973.37 1659.99C1914.12 1683.91 1795.13 1738.66 1708.95 1781.65C1423.12 1924.26 1215.58 2068.23 1012.51 2264.77C810.767 2460.03 693.246 2619.43 573.786 2859.81C421.41 3166.44 338.783 3503.78 326.189 3870.71L320.215 4045.01L382.902 4042.06L445.6 4039.1L452.171 3882.44C467.204 3524.31 539.891 3221.01 679.78 2932.63C928.904 2419.06 1375.6 2038.14 2039.76 1772.92C2122.04 1740.06 2144.32 1727.25 2140.77 1714.81C2138.26 1706.05 2130.83 1680.15 2124.24 1657.26C2116.5 1630.33 2106.78 1615.8 2096.69 1616.07C2088.11 1616.31 2032.62 1636.08 1973.37 1659.99ZM862.564 3501.67C951.008 3597.02 1168.81 3746.45 1346.01 3833.34C1989.15 4148.72 2750.48 4099.6 3349.34 3704.07C3441.91 3642.93 3498.25 3599.29 3603.97 3506.84L3638.25 3476.87L2238.54 3476.48L838.815 3476.08L862.564 3501.67Z" fill="#2E2E2E"/>
<path fill-rule="evenodd" clip-rule="evenodd" d="M1992.96 11.4074C1786.06 34.7804 1551.27 105.291 1346.59 205.51C1154.06 299.785 947.444 443.871 828.003 567.139L789.29 607.09H2232.99H3676.69L3628.09 557.318C3512.02 438.436 3314.76 299.413 3136.94 211.15C2933.11 109.971 2716.09 43.73 2494.37 14.9814C2368.83 -1.29251 2121.05 -3.05503 1992.96 11.4074ZM4005.41 66.0944C4005.25 166.881 3987.62 353.933 3965.95 484.702C3857.43 1139.66 3515.65 1643.42 2935.28 2003.81C2758.56 2113.55 2519.31 2226.46 2274.52 2315.64C2219.31 2335.75 2174.14 2353.52 2174.14 2355.14C2174.14 2356.75 2183.68 2382.99 2195.33 2413.46C2219.98 2477.84 2210.39 2477.38 2360.21 2421.44C2803.45 2255.94 3157.78 2043.44 3437.69 1775.27C3868.44 1362.57 4100.52 816.78 4129.45 148.375L4135.87 0H4070.69H4005.5L4005.41 66.0944ZM331.918 1329.23C307.748 1392.05 255.344 1588.66 238.616 1679.29C224.23 1757.23 220.528 1826.15 220.45 2017.1C220.342 2279.61 230.978 2369.45 284.969 2562.13L312.85 2661.64L259.986 2772.82C160.7 2981.68 77.6813 3259.94 39.7025 3511.2C18.2255 3653.32 0 3865.05 0 3972.52V4044H76.8978H153.786L160.729 3894.68C181.452 3448.51 267.194 3102.44 441.918 2759.7C632.36 2386.15 945.416 2057.1 1353.1 1801.99C1487.56 1717.85 1777.26 1572.64 1929.3 1513.16C1996.63 1486.82 2053.46 1463.96 2055.59 1462.33C2057.71 1460.72 2049.39 1424.05 2037.09 1380.85L2014.72 1302.31H1178.5H342.28L331.918 1329.23Z" fill="#2E2E2E"/>
</g>
<defs>
<clipPath id="clip0_215_604">
<rect width="4456" height="4044" fill="white"/>
</clipPath>
</defs>
</svg>
